<svg width="512" height="512" xmlns="http://www.w3.org/2000/svg">

 <g>
  <title>background</title>
  <rect fill="none" id="canvas_background" height="402" width="582" y="-1" x="-1"/>
 </g>
 <g>
  <title>Layer 1</title>
  <path id="svg_3" fill="#ffffff" d="m430.104147,195.009c-0.8,5.64 -1.96,11.44 -3.39,17.27c-7.16,29.55 -21.03,60.21 -30.22,78.07c-11,21.39 -31.17,42.17 -39.72,50.11c-1.57,10.44 -4.03,37.84 17.77,79.9c-37.23,43.93 -89.8,74.46 -149.43,83.31c-10.23,-36.48 -23.01,-84.56 -24.19,-90.48c-14.06,1.83 -73.34,7.33 -82.51,-4.89c-9.16,-12.22 -14.05,-29.95 -9.16,-47.67c-7.34,-7.33 -9.78,-15.89 -9.17,-25.67c-4.28,-3.67 -7.95,-18.94 -3.06,-29.95c0,-7.94 -3.88,-10.38 -3.88,-10.38s-23.01,-7.95 -27.28,-9.78c-4.28,-1.84 -7.34,-15.28 -3.67,-20.78s34.28,-41.89 40.06,-52.12c0,0 -0.95,-10.22 -4.61,-20c-3.67,-9.78 -7.95,-50.11 0,-69.06c7.94,-18.95 26.89,-70.28 69.06,-89.23c10.64,-4.78 22.84,-9.21 35.65,-12.97c37.96,-11.16 81.3,-16.49 105.52,-7.81c32.39,11.61 81.9,34.84 100.84,70.9c18.95,36.05 26.28,77 21.39,111.23z"/>
  <path id="svg_5" fill="#8DC63F" d="m235.680147,111.338c-0.055,3.18 0.41,6.251 1.32,9.124l-57.222,-0.988c-1.957,-0.034 -3.512,-1.754 -3.476,-3.834l0.184,-10.651c0.036,-2.081 1.65,-3.746 3.606,-3.712l57.222,0.988c-1.009,2.84 -1.579,5.893 -1.634,9.073z"/>
  <path id="svg_6" opacity="0.1" fill="#8DC63F" d="m235.680147,111.338c-0.055,3.18 0.41,6.251 1.32,9.124l-57.222,-0.988c-1.957,-0.034 -3.512,-1.754 -3.476,-3.834l0.184,-10.651c0.036,-2.081 1.65,-3.746 3.606,-3.712l57.222,0.988c-1.009,2.84 -1.579,5.893 -1.634,9.073z"/>
  <path id="svg_8" fill="#8DC63F" d="m352.296147,108.024l-0.184,10.651c-0.036,2.081 -1.65,3.746 -3.606,3.712l-57.216,-0.988c1.009,-2.84 1.579,-5.893 1.634,-9.073c0.009,-0.496 0.006,-0.986 -0.012,-1.478c-0.089,-2.654 -0.541,-5.223 -1.308,-7.647l57.216,0.988c1.956,0.034 3.512,1.754 3.476,3.835z"/>
  <path id="svg_9" opacity="0.1" fill="#8DC63F" d="m352.296147,108.024l-0.184,10.651c-0.036,2.081 -1.65,3.746 -3.606,3.712l-57.216,-0.988c1.009,-2.84 1.579,-5.893 1.634,-9.073c0.009,-0.496 0.006,-0.986 -0.012,-1.478c-0.089,-2.654 -0.541,-5.223 -1.308,-7.647l57.216,0.988c1.956,0.034 3.512,1.754 3.476,3.835z"/>
  <path id="svg_11" fill="#8DC63F" d="m272.926147,139.134l-0.988,57.216c-0.034,1.957 -1.748,3.512 -3.834,3.476l-10.646,-0.184c-2.086,-0.036 -3.746,-1.65 -3.712,-3.606l0.988,-57.216c2.84,1.009 5.893,1.579 9.073,1.634c3.181,0.055 6.246,-0.41 9.119,-1.32z"/>
  <path id="svg_12" opacity="0.1" fill="#8DC63F" d="m272.926147,139.134l-0.988,57.216c-0.034,1.957 -1.748,3.512 -3.834,3.476l-10.646,-0.184c-2.086,-0.036 -3.746,-1.65 -3.712,-3.606l0.988,-57.216c2.84,1.009 5.893,1.579 9.073,1.634c3.181,0.055 6.246,-0.41 9.119,-1.32z"/>
  <path id="svg_14" fill="#8DC63F" d="m274.851147,27.628l-0.988,57.216c-2.84,-1.009 -5.887,-1.579 -9.068,-1.634c-3.18,-0.055 -6.251,0.41 -9.124,1.32l0.988,-57.216c0.034,-1.957 1.748,-3.512 3.834,-3.476l10.645,0.184c2.087,0.036 3.747,1.65 3.713,3.606z"/>
  <path id="svg_15" opacity="0.1" fill="#8DC63F" d="m274.851147,27.628l-0.988,57.216c-2.84,-1.009 -5.887,-1.579 -9.068,-1.634c-3.18,-0.055 -6.251,0.41 -9.124,1.32l0.988,-57.216c0.034,-1.957 1.748,-3.512 3.834,-3.476l10.645,0.184c2.087,0.036 3.747,1.65 3.713,3.606z"/>
  <path id="svg_17" fill="#8DC63F" d="m251.980147,85.987c-1.533,0.734 -2.993,1.598 -4.364,2.594c-0.005,0 -0.005,0.005 -0.011,0.005c-3.63,2.601 -6.628,6.043 -8.709,10.045l-39.765,-41.162c-1.361,-1.404 -1.246,-3.72 0.251,-5.166l7.66,-7.4c1.502,-1.451 3.816,-1.481 5.177,-0.072l39.761,41.156z"/>
  <path id="svg_18" opacity="0.1" fill="#8DC63F" d="m251.980147,85.987c-1.533,0.734 -2.993,1.598 -4.364,2.594c-0.005,0 -0.005,0.005 -0.011,0.005c-3.63,2.601 -6.628,6.043 -8.709,10.045l-39.765,-41.162c-1.361,-1.404 -1.246,-3.72 0.251,-5.166l7.66,-7.4c1.502,-1.451 3.816,-1.481 5.177,-0.072l39.761,41.156z"/>
  <path id="svg_20" fill="#8DC63F" d="m329.215147,171.361l-7.66,7.4c-1.502,1.451 -3.816,1.482 -5.177,0.072l-39.76,-41.157c5.605,-2.675 10.216,-7.124 13.088,-12.639l39.76,41.157c1.361,1.405 1.246,3.721 -0.251,5.167z"/>
  <path id="svg_21" opacity="0.1" fill="#8DC63F" d="m329.215147,171.361l-7.66,7.4c-1.502,1.451 -3.816,1.482 -5.177,0.072l-39.76,-41.157c5.605,-2.675 10.216,-7.124 13.088,-12.639l39.76,41.157c1.361,1.405 1.246,3.721 -0.251,5.167z"/>
  <path id="svg_23" fill="#8DC63F" d="m251.096147,137.236l-3.268,3.157l-29.434,28.435l-8.455,8.168c-1.409,1.361 -3.72,1.251 -5.172,-0.251l-7.4,-7.66c-1.446,-1.497 -1.482,-3.816 -0.072,-5.172l8.378,-8.094l4.617,-4.46l25.042,-24.192l3.125,-3.019c2.674,5.611 7.129,10.222 12.639,13.088z"/>
  <path id="svg_24" opacity="0.1" fill="#8DC63F" d="m251.096147,137.236l-3.268,3.157l-29.434,28.435l-8.455,8.168c-1.409,1.361 -3.72,1.251 -5.172,-0.251l-7.4,-7.66c-1.446,-1.497 -1.482,-3.816 -0.072,-5.172l8.378,-8.094l4.617,-4.46l25.042,-24.192l3.125,-3.019c2.674,5.611 7.129,10.222 12.639,13.088z"/>
  <path id="svg_26" fill="#8DC63F" d="m331.303147,59.751l-12.419,11.998l-28.737,27.762c-2.68,-5.611 -7.135,-10.216 -12.644,-13.083l41.157,-39.76c1.409,-1.361 3.72,-1.251 5.172,0.251l7.4,7.66c1.445,1.497 1.48,3.816 0.071,5.172z"/>
  <path id="svg_27" opacity="0.1" fill="#8DC63F" d="m331.303147,59.751l-12.419,11.998l-28.737,27.762c-2.68,-5.611 -7.135,-10.216 -12.644,-13.083l41.157,-39.76c1.409,-1.361 3.72,-1.251 5.172,0.251l7.4,7.66c1.445,1.497 1.48,3.816 0.071,5.172z"/>
  <path id="svg_28" opacity="0.05" fill="#231F20" d="m223.392147,56.394c-0.867,0.567 -1.718,1.151 -2.559,1.757c-4.116,2.959 -7.901,6.35 -11.276,10.109l28.234,29.225c2.554,-3.639 5.911,-6.686 9.816,-8.899c0.005,0 0.005,-0.005 0.011,-0.005c1.37,-0.995 2.83,-1.86 4.364,-2.594l-28.59,-29.593zm50.217,-10.876c-3.146,-0.48 -6.36,-0.751 -9.632,-0.808c-2.571,-0.044 -5.112,0.047 -7.623,0.267l-0.683,39.553c2.873,-0.91 5.944,-1.375 9.124,-1.32s6.227,0.625 9.068,1.634l0.676,-39.181c-0.311,-0.048 -0.618,-0.096 -0.93,-0.145zm33.024,14.109c-0.255,-0.199 -0.516,-0.397 -0.777,-0.59l-28.354,27.391c5.509,2.867 9.964,7.472 12.644,13.083l28.737,-27.762c-3.56,-4.515 -7.68,-8.587 -12.25,-12.122zm26.63,46.542c-0.089,-0.756 -0.195,-1.508 -0.311,-2.254l-41.348,-0.714c0.767,2.423 1.219,4.992 1.308,7.647c0.171,1.345 0.244,2.716 0.22,4.112c-0.038,2.221 -0.324,4.383 -0.829,6.456l41.03,0.708c0.242,-2.126 0.381,-4.28 0.419,-6.463c0.055,-3.217 -0.117,-6.385 -0.489,-9.492zm-61.334,36.716c-3.047,0.945 -6.295,1.428 -9.67,1.37c-2.625,-0.045 -5.174,-0.418 -7.6,-1.075l-0.698,40.453c2.502,0.307 5.038,0.486 7.609,0.53c3.272,0.056 6.493,-0.104 9.654,-0.475c0.313,-0.038 0.621,-0.076 0.935,-0.113l0.708,-40.997c-0.309,0.108 -0.624,0.21 -0.938,0.307zm-36.556,-15.625c-0.016,-0.033 -0.031,-0.06 -0.042,-0.092l-25.042,24.192l-4.617,4.46c3.647,4.867 7.928,9.244 12.721,13.009l29.434,-28.435c-5.404,-3.011 -9.773,-7.61 -12.454,-13.134zm55.355,-1.164c-0.303,0.717 -0.639,1.423 -1.007,2.107c-2.541,4.793 -6.363,8.819 -11.017,11.634l28.234,29.225c4.323,-3.376 8.239,-7.239 11.651,-11.504c0.386,-0.479 0.761,-0.963 1.13,-1.452l-28.991,-30.01zm-55.662,-23.87l-42.064,-0.726c-0.137,0.742 -0.268,1.489 -0.384,2.242c-0.479,3.092 -0.76,6.252 -0.816,9.47c-0.038,2.183 0.027,4.341 0.196,6.473l41.03,0.708c-0.433,-2.089 -0.644,-4.26 -0.605,-6.481c0.057,-3.315 0.662,-6.496 1.732,-9.454c0.271,-0.76 0.575,-1.504 0.911,-2.232z"/>
  <path id="svg_29" fill="#8DC63F" d="m327.504147,89.775c-3.873,-11.136 -10.504,-20.735 -18.951,-28.163c-4.57,-4.026 -9.676,-7.411 -15.157,-10.065c-10.13,-4.894 -21.552,-7.283 -33.316,-6.522c-2.997,0.193 -6.014,0.588 -9.036,1.199s-5.961,1.419 -8.798,2.405c-11.137,3.868 -20.735,10.504 -28.163,18.952c-4.026,4.57 -7.412,9.671 -10.059,15.161c-4.9,10.126 -7.289,21.548 -6.53,33.307c0.193,2.997 0.588,6.014 1.2,9.041c0.612,3.028 1.419,5.961 2.405,8.798c3.866,11.131 10.503,20.73 18.951,28.158c4.571,4.032 9.672,7.417 15.157,10.065c10.126,4.9 21.548,7.289 33.312,6.529c2.997,-0.193 6.019,-0.589 9.041,-1.2s5.956,-1.418 8.793,-2.404c11.137,-3.867 20.735,-10.504 28.17,-18.947c4.02,-4.574 7.411,-9.676 10.059,-15.161c4.9,-10.126 7.284,-21.547 6.528,-33.312c-0.193,-2.997 -0.588,-6.014 -1.2,-9.041c-0.613,-3.029 -1.42,-5.963 -2.406,-8.8zm-35.553,29.493c-1.619,6.003 -5.166,11.34 -10.065,15.157c-1.04,0.815 -2.139,1.554 -3.292,2.216c-2.611,1.506 -5.504,2.619 -8.622,3.249c-3.118,0.63 -6.222,0.729 -9.212,0.355c-1.32,-0.162 -2.626,-0.421 -3.894,-0.764c-5.997,-1.615 -11.339,-5.161 -15.157,-10.065c-0.809,-1.036 -1.553,-2.134 -2.215,-3.287c-1.507,-2.611 -2.62,-5.509 -3.25,-8.627s-0.729,-6.221 -0.355,-9.212c0.162,-1.32 0.422,-2.621 0.765,-3.889c1.614,-6.002 5.16,-11.344 10.059,-15.161c1.035,-0.809 2.139,-1.554 3.292,-2.216c2.61,-1.506 5.509,-2.62 8.627,-3.25s6.216,-0.728 9.207,-0.354c1.32,0.162 2.62,0.417 3.894,0.764c5.997,1.615 11.338,5.156 15.161,10.059c0.809,1.035 1.548,2.135 2.216,3.292c1.507,2.611 2.62,5.509 3.25,8.627c0.63,3.118 0.729,6.222 0.355,9.212c-0.167,1.326 -0.421,2.625 -0.764,3.894z"/>
  <path id="svg_31" fill="#8DC63F" d="m254.848147,65.051c-25.839,5.222 -42.554,30.396 -37.332,56.235c5.221,25.834 30.4,42.547 56.239,37.326c25.834,-5.221 42.547,-30.4 37.327,-56.234c-5.222,-25.839 -30.4,-42.547 -56.234,-37.327zm15.124,74.839c-15.498,3.132 -30.597,-6.89 -33.729,-22.389c-3.132,-15.498 6.89,-30.597 22.388,-33.729c15.493,-3.131 30.597,6.89 33.729,22.388c3.132,15.5 -6.895,30.599 -22.388,33.73z"/>
  <path opacity="0.2" id="svg_33" fill="#8DC63F" d="m254.848147,65.051c-25.839,5.222 -42.554,30.396 -37.332,56.235c5.221,25.834 30.4,42.547 56.239,37.326c25.834,-5.221 42.547,-30.4 37.327,-56.234c-5.222,-25.839 -30.4,-42.547 -56.234,-37.327zm15.124,74.839c-15.498,3.132 -30.597,-6.89 -33.729,-22.389c-3.132,-15.498 6.89,-30.597 22.388,-33.729c15.493,-3.131 30.597,6.89 33.729,22.388c3.132,15.5 -6.895,30.599 -22.388,33.73z"/>
  <path opacity="0.05" id="svg_35" fill="#8DC63F" d="m236.243147,117.502c-2.979,-14.743 5.941,-29.118 20.156,-33.184c-0.751,0.091 -1.508,0.211 -2.264,0.364c-15.498,3.132 -25.515,18.229 -22.383,33.728c3.132,15.498 18.225,25.522 33.723,22.39c0.756,-0.153 1.5,-0.336 2.228,-0.544c-14.679,1.772 -28.481,-8.012 -31.46,-22.754z"/>
  <path opacity="0.05" id="svg_37" fill="#231F20" d="m236.243147,117.502c-2.979,-14.743 5.941,-29.118 20.156,-33.184c-0.751,0.091 -1.508,0.211 -2.264,0.364c-15.498,3.132 -25.515,18.229 -22.383,33.728c3.132,15.498 18.225,25.522 33.723,22.39c0.756,-0.153 1.5,-0.336 2.228,-0.544c-14.679,1.772 -28.481,-8.012 -31.46,-22.754z"/>
  <path id="svg_38" opacity="0.05" fill="#231F20" d="m254.848147,65.051c-1.009,0.204 -2.001,0.437 -2.976,0.706c24.75,-3.401 48.2,13.002 53.217,37.832s-10.223,49.051 -34.351,55.528c1.002,-0.131 2.007,-0.301 3.016,-0.505c25.834,-5.221 42.547,-30.4 37.327,-56.234c-5.221,-25.839 -30.399,-42.547 -56.233,-37.327z"/>
  <path id="svg_40" fill="#D51920" d="m174.606147,260.263c-1.174,2.589 -1.884,5.272 -2.158,7.952l-46.582,-21.132c-1.593,-0.723 -2.258,-2.686 -1.489,-4.379l3.933,-8.671c0.768,-1.694 2.683,-2.486 4.276,-1.764l46.582,21.132c-1.836,1.972 -3.387,4.273 -4.562,6.862z"/>
  <path id="svg_41" opacity="0.1" fill="#8DC63F" d="m174.606147,260.263c-1.174,2.589 -1.884,5.272 -2.158,7.952l-46.582,-21.132c-1.593,-0.723 -2.258,-2.686 -1.489,-4.379l3.933,-8.671c0.768,-1.694 2.683,-2.486 4.276,-1.764l46.582,21.132c-1.836,1.972 -3.387,4.273 -4.562,6.862z"/>
  <path id="svg_43" fill="#D51920" d="m271.430147,298.959l-3.933,8.671c-0.768,1.694 -2.683,2.486 -4.276,1.764l-46.578,-21.13c1.836,-1.971 3.388,-4.272 4.562,-6.861c0.183,-0.404 0.355,-0.807 0.515,-1.216c0.87,-2.209 1.411,-4.476 1.643,-6.736l46.578,21.13c1.593,0.721 2.258,2.684 1.489,4.378z"/>
  <path id="svg_44" opacity="0.1" fill="#8DC63F" d="m271.430147,298.959l-3.933,8.671c-0.768,1.694 -2.683,2.486 -4.276,1.764l-46.578,-21.13c1.836,-1.971 3.388,-4.272 4.562,-6.861c0.183,-0.404 0.355,-0.807 0.515,-1.216c0.87,-2.209 1.411,-4.476 1.643,-6.736l46.578,21.13c1.593,0.721 2.258,2.684 1.489,4.378z"/>
  <path id="svg_46" fill="#D51920" d="m195.284147,296.288l-21.13,46.578c-0.723,1.593 -2.681,2.26 -4.379,1.49l-8.666,-3.931c-1.698,-0.77 -2.486,-2.684 -1.764,-4.276l21.13,-46.578c1.971,1.836 4.272,3.388 6.861,4.562c2.589,1.174 5.268,1.881 7.948,2.155z"/>
  <path id="svg_47" opacity="0.1" fill="#8DC63F" d="m195.284147,296.288l-21.13,46.578c-0.723,1.593 -2.681,2.26 -4.379,1.49l-8.666,-3.931c-1.698,-0.77 -2.486,-2.684 -1.764,-4.276l21.13,-46.578c1.971,1.836 4.272,3.388 6.861,4.562c2.589,1.174 5.268,1.881 7.948,2.155z"/>
  <path id="svg_49" fill="#D51920" d="m236.462147,205.515l-21.13,46.578c-1.971,-1.836 -4.268,-3.386 -6.857,-4.56s-5.272,-1.884 -7.952,-2.158l21.13,-46.578c0.723,-1.593 2.681,-2.26 4.379,-1.489l8.666,3.931c1.699,0.771 2.487,2.684 1.764,4.276z"/>
  <path id="svg_50" opacity="0.1" fill="#8DC63F" d="m236.462147,205.515l-21.13,46.578c-1.971,-1.836 -4.268,-3.386 -6.857,-4.56s-5.272,-1.884 -7.952,-2.158l21.13,-46.578c0.723,-1.593 2.681,-2.26 4.379,-1.489l8.666,3.931c1.699,0.771 2.487,2.684 1.764,4.276z"/>
  <path id="svg_52" fill="#D51920" d="m196.978147,245.259c-1.518,0.057 -3.022,0.248 -4.5,0.578c-0.004,-0.002 -0.006,0.003 -0.011,0.001c-3.901,0.844 -7.583,2.602 -10.71,5.146l-17.996,-47.884c-0.618,-1.635 0.299,-3.494 2.04,-4.148l8.911,-3.349c1.748,-0.657 3.656,0.14 4.272,1.779l17.994,47.877z"/>
  <path id="svg_53" opacity="0.1" fill="#8DC63F" d="m196.978147,245.259c-1.518,0.057 -3.022,0.248 -4.5,0.578c-0.004,-0.002 -0.006,0.003 -0.011,0.001c-3.901,0.844 -7.583,2.602 -10.71,5.146l-17.996,-47.884c-0.618,-1.635 0.299,-3.494 2.04,-4.148l8.911,-3.349c1.748,-0.657 3.656,0.14 4.272,1.779l17.994,47.877z"/>
  <path id="svg_55" fill="#D51920" d="m230.006147,342.711l-8.911,3.349c-1.748,0.657 -3.656,-0.14 -4.272,-1.779l-17.994,-47.877c5.547,-0.203 10.909,-2.215 15.223,-5.718l17.995,47.877c0.618,1.634 -0.299,3.493 -2.041,4.148z"/>
  <path id="svg_56" opacity="0.1" fill="#8DC63F" d="m230.006147,342.711l-8.911,3.349c-1.748,0.657 -3.656,-0.14 -4.272,-1.779l-17.994,-47.877c5.547,-0.203 10.909,-2.215 15.223,-5.718l17.995,47.877c0.618,1.634 -0.299,3.493 -2.041,4.148z"/>
  <path id="svg_58" fill="#D51920" d="m178.052147,286.979l-3.802,1.429l-34.239,12.869l-9.836,3.697c-1.639,0.616 -3.496,-0.295 -4.153,-2.043l-3.349,-8.911c-0.654,-1.741 0.14,-3.656 1.777,-4.268l9.746,-3.663l5.371,-2.019l29.13,-10.949l3.636,-1.366c0.202,5.552 2.218,10.916 5.719,15.224z"/>
  <path id="svg_59" opacity="0.1" fill="#8DC63F" d="m178.052147,286.979l-3.802,1.429l-34.239,12.869l-9.836,3.697c-1.639,0.616 -3.496,-0.295 -4.153,-2.043l-3.349,-8.911c-0.654,-1.741 0.14,-3.656 1.777,-4.268l9.746,-3.663l5.371,-2.019l29.13,-10.949l3.636,-1.366c0.202,5.552 2.218,10.916 5.719,15.224z"/>
  <path id="svg_61" fill="#D51920" d="m271.356147,251.91l-14.447,5.43l-33.43,12.565c-0.205,-5.553 -2.224,-10.913 -5.725,-15.221l47.877,-17.994c1.639,-0.616 3.496,0.295 4.153,2.042l3.349,8.911c0.655,1.741 -0.14,3.656 -1.777,4.267z"/>
  <path id="svg_62" opacity="0.1" fill="#8DC63F" d="m271.356147,251.91l-14.447,5.43l-33.43,12.565c-0.205,-5.553 -2.224,-10.913 -5.725,-15.221l47.877,-17.994c1.639,-0.616 3.496,0.295 4.153,2.042l3.349,8.911c0.655,1.741 -0.14,3.656 -1.777,4.267z"/>
  <path id="svg_63" opacity="0.05" fill="#231F20" d="m184.040147,210.834c-0.913,0.157 -1.818,0.334 -2.723,0.532c-4.427,0.965 -8.735,2.402 -12.839,4.287l12.778,33.997c3.387,-2.077 7.223,-3.384 11.211,-3.813c0.004,0.002 0.006,-0.003 0.011,-0.001c1.478,-0.33 2.982,-0.52 4.5,-0.578l-12.938,-34.424zm45.051,8.914c-2.41,-1.511 -4.95,-2.875 -7.613,-4.083c-2.093,-0.949 -4.21,-1.777 -6.347,-2.488l-14.607,32.198c2.68,0.274 5.363,0.983 7.952,2.158c2.589,1.174 4.886,2.724 6.857,4.56l14.469,-31.896c-0.239,-0.15 -0.473,-0.299 -0.711,-0.449zm22.075,23.299c-0.139,-0.254 -0.282,-0.509 -0.428,-0.76l-32.983,12.397c3.501,4.308 5.519,9.668 5.725,15.221l33.43,-12.565c-1.319,-4.968 -3.251,-9.77 -5.744,-14.293zm5.312,47.632c0.195,-0.652 0.375,-1.306 0.545,-1.959l-33.66,-15.269c-0.232,2.26 -0.773,4.527 -1.643,6.736c-0.338,1.164 -0.764,2.315 -1.28,3.451c-0.82,1.808 -1.822,3.48 -2.972,5.001l33.401,15.152c0.953,-1.658 1.833,-3.375 2.639,-5.152c1.188,-2.621 2.172,-5.28 2.97,-7.96zm-63.345,8.332c-2.834,-0.307 -5.67,-1.065 -8.417,-2.311c-2.137,-0.969 -4.095,-2.18 -5.852,-3.581l-14.939,32.931c1.943,1.141 3.96,2.188 6.053,3.137c2.663,1.208 5.363,2.221 8.087,3.039c0.27,0.08 0.536,0.159 0.807,0.239l15.14,-33.374c-0.292,-0.021 -0.586,-0.048 -0.879,-0.08zm-24.433,-25.798c-0.001,-0.032 -0.004,-0.06 -0.001,-0.091l-29.13,10.949l-5.371,2.019c1.263,5.287 3.22,10.397 5.814,15.187l34.239,-12.869c-3.364,-4.389 -5.314,-9.712 -5.551,-15.195zm45.815,18.704c-0.504,0.48 -1.03,0.94 -1.574,1.371c-3.786,3.028 -8.351,4.973 -13.167,5.63l12.778,33.997c4.745,-1.234 9.329,-3.011 13.641,-5.298c0.486,-0.256 0.966,-0.52 1.443,-0.79l-13.121,-34.91zm-37.176,-39.346l-34.243,-15.534c-0.376,0.56 -0.749,1.126 -1.111,1.702c-1.491,2.366 -2.844,4.858 -4.032,7.478c-0.806,1.777 -1.519,3.57 -2.139,5.379l33.401,15.152c0.387,-1.867 0.985,-3.723 1.805,-5.53c1.224,-2.699 2.85,-5.093 4.778,-7.139c0.493,-0.528 1.007,-1.031 1.541,-1.508z"/>
  <path id="svg_64" fill="#D51920" d="m257.577147,275.187c0.778,-10.509 -1.252,-20.737 -5.542,-29.83c-2.318,-4.925 -5.304,-9.515 -8.857,-13.638c-6.57,-7.611 -15.09,-13.627 -25.01,-17.181c-2.527,-0.906 -5.141,-1.653 -7.837,-2.226c-2.696,-0.572 -5.393,-0.953 -8.07,-1.152c-10.508,-0.783 -20.737,1.252 -29.83,5.542c-4.925,2.318 -9.514,5.299 -13.635,8.863c-7.615,6.565 -13.631,15.085 -17.184,24.999c-0.906,2.527 -1.653,5.141 -2.227,7.842c-0.573,2.701 -0.953,5.393 -1.152,8.07c-0.782,10.503 1.253,20.732 5.543,29.825c2.317,4.93 5.299,9.518 8.857,13.638c6.565,7.615 15.085,13.631 25.004,17.185c2.527,0.906 5.146,1.654 7.842,2.227c2.696,0.573 5.389,0.952 8.065,1.151c10.508,0.783 20.737,-1.252 29.833,-5.536c4.922,-2.324 9.515,-5.304 13.635,-8.863c7.615,-6.565 13.626,-15.086 17.185,-25.004c0.906,-2.527 1.653,-5.141 2.227,-7.842c0.575,-2.7 0.954,-5.393 1.153,-8.07zm-39.634,11.563c-3.46,4.349 -8.265,7.466 -13.638,8.857c-1.142,0.299 -2.306,0.515 -3.487,0.649c-2.676,0.308 -5.445,0.194 -8.225,-0.397c-2.781,-0.59 -5.362,-1.611 -7.682,-2.981c-1.025,-0.602 -2.004,-1.278 -2.923,-2.01c-4.345,-3.454 -7.467,-8.26 -8.857,-13.638c-0.295,-1.137 -0.516,-2.302 -0.65,-3.482c-0.309,-2.676 -0.193,-5.449 0.398,-8.23c0.59,-2.781 1.611,-5.362 2.981,-7.682c0.602,-1.025 1.277,-2 2.009,-2.918c3.455,-4.35 8.261,-7.472 13.635,-8.863c1.137,-0.296 2.306,-0.515 3.487,-0.649c2.676,-0.308 5.449,-0.192 8.23,0.398s5.357,1.61 7.677,2.98c1.025,0.602 2.001,1.272 2.923,2.01c4.345,3.454 7.468,8.255 8.863,13.635c0.296,1.137 0.511,2.301 0.649,3.487c0.309,2.676 0.193,5.449 -0.398,8.23c-0.59,2.781 -1.611,5.362 -2.981,7.682c-0.609,1.028 -1.279,2.004 -2.011,2.922z"/>
  <path id="svg_66" fill="#D51920" d="m206.766147,229.106c-23.048,-4.894 -45.697,9.818 -50.591,32.865c-4.893,23.043 9.823,45.693 32.871,50.587c23.043,4.893 45.693,-9.823 50.586,-32.866c4.894,-23.048 -9.823,-45.693 -32.866,-50.586zm-14.174,66.753c-13.824,-2.935 -22.648,-16.517 -19.713,-30.341s16.517,-22.648 30.341,-19.713c13.819,2.934 22.648,16.517 19.713,30.341c-2.935,13.824 -16.522,22.647 -30.341,19.713z"/>
  <path opacity="0.2" id="svg_68" fill="#8DC63F" d="m206.766147,229.106c-23.048,-4.894 -45.697,9.818 -50.591,32.865c-4.893,23.043 9.823,45.693 32.871,50.587c23.043,4.893 45.693,-9.823 50.586,-32.866c4.894,-23.048 -9.823,-45.693 -32.866,-50.586zm-14.174,66.753c-13.824,-2.935 -22.648,-16.517 -19.713,-30.341s16.517,-22.648 30.341,-19.713c13.819,2.934 22.648,16.517 19.713,30.341c-2.935,13.824 -16.522,22.647 -30.341,19.713z"/>
  <path opacity="0.05" id="svg_70" fill="#8DC63F" d="m172.879147,265.518c2.792,-13.15 15.213,-21.773 28.316,-20.059c-0.649,-0.192 -1.312,-0.362 -1.986,-0.505c-13.824,-2.935 -27.401,5.89 -30.336,19.714s5.885,27.405 19.708,30.34c0.674,0.143 1.349,0.257 2.02,0.345c-12.669,-3.759 -20.514,-16.685 -17.722,-29.835z"/>
  <path opacity="0.05" id="svg_72" fill="#231F20" d="m172.879147,265.518c2.792,-13.15 15.213,-21.773 28.316,-20.059c-0.649,-0.192 -1.312,-0.362 -1.986,-0.505c-13.824,-2.935 -27.401,5.89 -30.336,19.714s5.885,27.405 19.708,30.34c0.674,0.143 1.349,0.257 2.02,0.345c-12.669,-3.759 -20.514,-16.685 -17.722,-29.835z"/>
  <path id="svg_73" opacity="0.05" fill="#231F20" d="m206.766147,229.106c-0.9,-0.191 -1.797,-0.352 -2.691,-0.478c21.507,6 34.915,27.782 30.213,49.929s-25.805,36.601 -47.894,33.344c0.868,0.248 1.753,0.466 2.653,0.657c23.043,4.893 45.693,-9.823 50.586,-32.866c4.893,-23.048 -9.824,-45.693 -32.867,-50.586z"/>
  <path id="svg_75" fill="#F5BA3D" d="m324.948147,253.626c0.966,1.926 2.209,3.624 3.658,5.063l-34.662,17.377c-1.185,0.594 -2.659,0.05 -3.291,-1.21l-3.234,-6.452c-0.632,-1.26 -0.186,-2.767 0.999,-3.361l34.662,-17.377c0.286,2.022 0.903,4.033 1.868,5.96z"/>
  <path id="svg_76" opacity="0.1" fill="#F5BA3D" d="m324.948147,253.626c0.966,1.926 2.209,3.624 3.658,5.063l-34.662,17.377c-1.185,0.594 -2.659,0.05 -3.291,-1.21l-3.234,-6.452c-0.632,-1.26 -0.186,-2.767 0.999,-3.361l34.662,-17.377c0.286,2.022 0.903,4.033 1.868,5.96z"/>
  <path id="svg_78" fill="#F5BA3D" d="m393.915147,215.015l3.234,6.452c0.632,1.26 0.186,2.767 -0.999,3.361l-34.658,17.375c-0.286,-2.022 -0.903,-4.034 -1.868,-5.96c-0.151,-0.3 -0.306,-0.594 -0.471,-0.883c-0.887,-1.565 -1.965,-2.966 -3.186,-4.18l34.658,-17.375c1.184,-0.595 2.658,-0.051 3.29,1.21z"/>
  <path id="svg_79" opacity="0.1" fill="#F5BA3D" d="m393.915147,215.015l3.234,6.452c0.632,1.26 0.186,2.767 -0.999,3.361l-34.658,17.375c-0.286,-2.022 -0.903,-4.034 -1.868,-5.96c-0.151,-0.3 -0.306,-0.594 -0.471,-0.883c-0.887,-1.565 -1.965,-2.966 -3.186,-4.18l34.658,-17.375c1.184,-0.595 2.658,-0.051 3.29,1.21z"/>
  <path id="svg_81" fill="#F5BA3D" d="m356.037147,258.616l17.375,34.658c0.594,1.185 0.053,2.658 -1.21,3.291l-6.448,3.233c-1.264,0.633 -2.767,0.186 -3.361,-0.999l-17.375,-34.658c2.022,-0.286 4.034,-0.903 5.96,-1.868c1.926,-0.967 3.62,-2.209 5.059,-3.657z"/>
  <path id="svg_82" opacity="0.1" fill="#F5BA3D" d="m356.037147,258.616l17.375,34.658c0.594,1.185 0.053,2.658 -1.21,3.291l-6.448,3.233c-1.264,0.633 -2.767,0.186 -3.361,-0.999l-17.375,-34.658c2.022,-0.286 4.034,-0.903 5.96,-1.868c1.926,-0.967 3.62,-2.209 5.059,-3.657z"/>
  <path id="svg_84" fill="#F5BA3D" d="m322.176147,191.071l17.375,34.658c-2.022,0.286 -4.03,0.901 -5.957,1.867c-1.926,0.966 -3.624,2.209 -5.063,3.658l-17.375,-34.658c-0.594,-1.185 -0.053,-2.657 1.21,-3.291l6.448,-3.233c1.264,-0.633 2.767,-0.186 3.362,0.999z"/>
  <path id="svg_85" opacity="0.1" fill="#F5BA3D" d="m322.176147,191.071l17.375,34.658c-2.022,0.286 -4.03,0.901 -5.957,1.867c-1.926,0.966 -3.624,2.209 -5.063,3.658l-17.375,-34.658c-0.594,-1.185 -0.053,-2.657 1.21,-3.291l6.448,-3.233c1.264,-0.633 2.767,-0.186 3.362,0.999z"/>
  <path id="svg_87" fill="#F5BA3D" d="m326.773147,233.288c-0.69,0.922 -1.295,1.899 -1.805,2.927c-0.003,0.002 -0.002,0.005 -0.005,0.007c-1.363,2.701 -2.081,5.709 -2.073,8.765l-36.798,-12.223c-1.258,-0.415 -1.916,-1.842 -1.472,-3.18l2.275,-6.848c0.446,-1.343 1.826,-2.088 3.085,-1.669l36.793,12.221z"/>
  <path id="svg_88" opacity="0.1" fill="#F5BA3D" d="m326.773147,233.288c-0.69,0.922 -1.295,1.899 -1.805,2.927c-0.003,0.002 -0.002,0.005 -0.005,0.007c-1.363,2.701 -2.081,5.709 -2.073,8.765l-36.798,-12.223c-1.258,-0.415 -1.916,-1.842 -1.472,-3.18l2.275,-6.848c0.446,-1.343 1.826,-2.088 3.085,-1.669l36.793,12.221z"/>
  <path id="svg_90" fill="#F5BA3D" d="m399.949147,260.286l-2.275,6.848c-0.446,1.343 -1.826,2.088 -3.085,1.669l-36.794,-12.221c2.525,-3.366 3.896,-7.485 3.888,-11.698l36.794,12.221c1.259,0.416 1.917,1.843 1.472,3.181z"/>
  <path id="svg_91" opacity="0.1" fill="#F5BA3D" d="m399.949147,260.286l-2.275,6.848c-0.446,1.343 -1.826,2.088 -3.085,1.669l-36.794,-12.221c2.525,-3.366 3.896,-7.485 3.888,-11.698l36.794,12.221c1.259,0.416 1.917,1.843 1.472,3.181z"/>
  <path id="svg_93" fill="#F5BA3D" d="m342.336147,264.332l-0.97,2.922l-8.74,26.313l-2.511,7.559c-0.418,1.26 -1.84,1.919 -3.184,1.473l-6.848,-2.275c-1.338,-0.445 -2.088,-1.826 -1.668,-3.082l2.488,-7.49l1.371,-4.127l7.436,-22.387l0.928,-2.794c3.368,2.528 7.49,3.898 11.698,3.888z"/>
  <path id="svg_94" opacity="0.1" fill="#F5BA3D" d="m342.336147,264.332l-0.97,2.922l-8.74,26.313l-2.511,7.559c-0.418,1.26 -1.84,1.919 -3.184,1.473l-6.848,-2.275c-1.338,-0.445 -2.088,-1.826 -1.668,-3.082l2.488,-7.49l1.371,-4.127l7.436,-22.387l0.928,-2.794c3.368,2.528 7.49,3.898 11.698,3.888z"/>
  <path id="svg_96" fill="#F5BA3D" d="m366.153147,192.627l-3.688,11.103l-8.533,25.691c-3.371,-2.527 -7.492,-3.893 -11.699,-3.883l12.221,-36.794c0.418,-1.26 1.84,-1.92 3.184,-1.473l6.848,2.275c1.338,0.444 2.087,1.825 1.667,3.081z"/>
  <path id="svg_97" opacity="0.1" fill="#F5BA3D" d="m366.153147,192.627l-3.688,11.103l-8.533,25.691c-3.371,-2.527 -7.492,-3.893 -11.699,-3.883l12.221,-36.794c0.418,-1.26 1.84,-1.92 3.184,-1.473l6.848,2.275c1.338,0.444 2.087,1.825 1.667,3.081z"/>
  <path id="svg_98" opacity="0.05" fill="#231F20" d="m300.317147,224.501c-0.342,0.613 -0.67,1.231 -0.985,1.858c-1.542,3.069 -2.749,6.293 -3.595,9.61l26.127,8.678c0.39,-2.986 1.449,-5.87 3.098,-8.425c0.003,-0.002 0.002,-0.005 0.005,-0.007c0.51,-1.028 1.115,-2.005 1.805,-2.927l-26.455,-8.787zm26.731,-22.3c-2.039,0.7 -4.054,1.546 -6.036,2.54c-1.557,0.781 -3.054,1.633 -4.492,2.554l12.011,23.959c1.439,-1.449 3.137,-2.692 5.063,-3.658s3.935,-1.58 5.957,-1.867l-11.898,-23.734c-0.203,0.07 -0.402,0.137 -0.605,0.206zm24.256,-1.901c-0.216,-0.039 -0.435,-0.076 -0.652,-0.11l-8.42,25.348c4.208,-0.009 8.329,1.357 11.699,3.883l8.533,-25.691c-3.555,-1.592 -7.306,-2.743 -11.16,-3.43zm30.602,19.579c-0.291,-0.426 -0.591,-0.844 -0.895,-1.255l-25.046,12.556c1.221,1.214 2.299,2.614 3.186,4.18c0.525,0.754 1,1.554 1.424,2.4c0.674,1.345 1.182,2.733 1.53,4.136l24.854,-12.46c-0.523,-1.352 -1.115,-2.689 -1.778,-4.011c-0.977,-1.951 -2.075,-3.798 -3.275,-5.546zm-25.29,41.302c-1.532,1.524 -3.331,2.834 -5.375,3.859c-1.59,0.797 -3.237,1.374 -4.9,1.741l12.285,24.504c1.598,-0.601 3.177,-1.29 4.735,-2.071c1.982,-0.994 3.866,-2.101 5.646,-3.317c0.176,-0.121 0.349,-0.241 0.526,-0.362l-12.45,-24.834c-0.152,0.163 -0.308,0.323 -0.467,0.48zm-26.852,2.1c-0.02,-0.015 -0.038,-0.026 -0.054,-0.042l-7.436,22.387l-1.371,4.127c3.718,1.776 7.662,3.059 11.722,3.815l8.74,-26.313c-4.19,-0.111 -8.257,-1.5 -11.601,-3.974zm32.866,-18.082c0.043,0.526 0.063,1.055 0.057,1.581c-0.021,3.675 -1.051,7.293 -2.96,10.444l26.127,8.678c1.535,-3.384 2.673,-6.933 3.381,-10.565c0.081,-0.408 0.154,-0.817 0.223,-1.227l-26.828,-8.911zm-40.912,3.149l-25.48,12.774c0.151,0.488 0.306,0.978 0.474,1.466c0.683,2.007 1.507,3.992 2.484,5.941c0.663,1.322 1.38,2.597 2.15,3.825l24.854,-12.46c-0.916,-1.118 -1.724,-2.355 -2.398,-3.7c-1.007,-2.008 -1.643,-4.108 -1.929,-6.22c-0.077,-0.541 -0.128,-1.083 -0.155,-1.626z"/>
  <path id="svg_99" fill="#F5BA3D" d="m373.301147,211.845c-5.822,-5.469 -12.817,-9.149 -20.221,-10.956c-4.008,-0.982 -8.136,-1.41 -12.26,-1.283c-7.618,0.243 -15.225,2.396 -22.049,6.547c-1.738,1.057 -3.425,2.242 -5.048,3.558c-1.623,1.316 -3.133,2.724 -4.526,4.207c-5.471,5.819 -9.149,12.817 -10.956,20.221c-0.982,4.008 -1.413,8.133 -1.278,12.26c0.238,7.618 2.391,15.225 6.54,22.046c1.057,1.738 2.242,3.425 3.56,5.051s2.724,3.133 4.207,4.526c5.817,5.468 12.815,9.146 20.219,10.953c4.01,0.985 8.136,1.415 12.26,1.283c7.617,-0.238 15.225,-2.391 22.048,-6.542c1.738,-1.057 3.428,-2.244 5.051,-3.56s3.13,-2.722 4.524,-4.204c5.471,-5.819 9.149,-12.817 10.961,-20.221c0.977,-4.009 1.41,-8.136 1.278,-12.26c-0.238,-7.617 -2.394,-15.222 -6.542,-22.048c-1.057,-1.738 -2.242,-3.425 -3.56,-5.051c-1.319,-1.626 -2.725,-3.134 -4.208,-4.527zm-12.082,28.87c0.913,4.112 0.46,8.43 -1.283,12.26c-0.368,0.816 -0.796,1.605 -1.28,2.364c-1.094,1.724 -2.482,3.301 -4.155,4.658c-1.674,1.357 -3.506,2.392 -5.419,3.106c-0.843,0.317 -1.709,0.572 -2.578,0.764c-4.107,0.914 -8.428,0.462 -12.26,-1.283c-0.811,-0.368 -1.602,-0.793 -2.362,-1.278c-1.724,-1.094 -3.303,-2.485 -4.66,-4.158c-1.357,-1.674 -2.392,-3.506 -3.106,-5.419c-0.317,-0.843 -0.57,-1.706 -0.762,-2.575c-0.916,-4.11 -0.465,-8.431 1.278,-12.26c0.368,-0.811 0.796,-1.605 1.28,-2.364c1.094,-1.724 2.485,-3.303 4.158,-4.66c1.674,-1.357 3.503,-2.389 5.416,-3.104c0.843,-0.317 1.703,-0.572 2.578,-0.764c4.107,-0.914 8.425,-0.465 12.26,1.278c0.811,0.368 1.6,0.795 2.364,1.28c1.724,1.094 3.303,2.485 4.66,4.158c1.357,1.674 2.392,3.506 3.106,5.419c0.318,0.849 0.573,1.709 0.765,2.578z"/>
  <path id="svg_101" fill="#F5BA3D" d="m321.920147,219.819c-13.872,11.249 -16.001,31.611 -4.752,45.483c11.247,13.869 31.611,15.996 45.483,4.746c13.869,-11.247 15.996,-31.611 4.749,-45.481c-11.249,-13.871 -31.611,-15.995 -45.48,-4.748zm32.581,40.179c-8.321,6.747 -20.532,5.472 -27.279,-2.848c-6.747,-8.32 -5.472,-20.532 2.848,-27.279c8.318,-6.745 20.532,-5.472 27.279,2.848c6.747,8.32 5.47,20.534 -2.848,27.279z"/>
  <path opacity="0.2" id="svg_103" fill="#F5BA3D" d="m321.920147,219.819c-13.872,11.249 -16.001,31.611 -4.752,45.483c11.247,13.869 31.611,15.996 45.483,4.746c13.869,-11.247 15.996,-31.611 4.749,-45.481c-11.249,-13.871 -31.611,-15.995 -45.48,-4.748zm32.581,40.179c-8.321,6.747 -20.532,5.472 -27.279,-2.848c-6.747,-8.32 -5.472,-20.532 2.848,-27.279c8.318,-6.745 20.532,-5.472 27.279,2.848c6.747,8.32 5.47,20.534 -2.848,27.279z"/>
  <path opacity="0.05" id="svg_105" fill="#8DC63F" d="m327.222147,257.149c-6.418,-7.915 -5.578,-19.346 1.679,-26.251c-0.422,0.291 -0.839,0.601 -1.245,0.929c-8.32,6.747 -9.593,18.956 -2.845,27.277c6.747,8.321 18.956,9.598 27.276,2.851c0.406,-0.329 0.795,-0.673 1.167,-1.026c-8.256,5.674 -19.614,4.135 -26.032,-3.78z"/>
  <path opacity="0.05" id="svg_107" fill="#231F20" d="m327.222147,257.149c-6.418,-7.915 -5.578,-19.346 1.679,-26.251c-0.422,0.291 -0.839,0.601 -1.245,0.929c-8.32,6.747 -9.593,18.956 -2.845,27.277c6.747,8.321 18.956,9.598 27.276,2.851c0.406,-0.329 0.795,-0.673 1.167,-1.026c-8.256,5.674 -19.614,4.135 -26.032,-3.78z"/>
  <path id="svg_108" opacity="0.05" fill="#231F20" d="m321.920147,219.819c-0.542,0.439 -1.064,0.891 -1.565,1.358c13.79,-9.814 33.019,-7.331 43.828,5.999c10.81,13.33 9.267,32.657 -3.184,44.122c0.56,-0.393 1.11,-0.811 1.652,-1.25c13.869,-11.247 15.996,-31.611 4.749,-45.481c-11.249,-13.871 -31.611,-15.995 -45.48,-4.748z"/>
 </g>
</svg>